<?xml version="1.0" encoding="UTF-8"?>
<svg version="1.1" xmlns="http://www.w3.org/2000/svg" width="132" height="150">
<path d="M0 0 C43.56 0 87.12 0 132 0 C132 49.5 132 99 132 150 C88.44 150 44.88 150 0 150 C0 100.5 0 51 0 0 Z " fill="#0F1924" transform="translate(0,0)"/>
<path d="M0 0 C43.56 0 87.12 0 132 0 C132 49.5 132 99 132 150 C88.44 150 44.88 150 0 150 C0 100.5 0 51 0 0 Z M57.62792969 7.31347656 C56.79646423 7.60087708 55.96499878 7.88827759 55.1083374 8.18438721 C54.22180481 8.49994568 53.33527222 8.81550415 52.421875 9.140625 C51.0328598 9.62580597 51.0328598 9.62580597 49.61578369 10.12078857 C47.65776505 10.80650088 45.70106369 11.49598467 43.74560547 12.18896484 C40.77743757 13.24028169 37.80519852 14.27932369 34.83203125 15.31640625 C32.92422411 15.98625319 31.01666391 16.65680392 29.109375 17.328125 C28.23093933 17.63558655 27.35250366 17.9430481 26.44744873 18.25982666 C20.83895408 20.25325324 15.40263554 22.50215227 10 25 C9.90658465 32.84191111 9.8358775 40.68368752 9.79275131 48.52601814 C9.7720341 52.16907784 9.74401477 55.81175196 9.69824219 59.45458984 C9.65420753 62.98190881 9.63074426 66.50886118 9.62049103 70.03643417 C9.60969697 72.01140199 9.57856746 73.98622598 9.54681396 75.96096802 C9.54230953 94.45181798 16.41050582 109.24922271 29.1875 122.31640625 C36.11081089 128.92239872 44.31899407 133.6368868 52.69921875 138.16796875 C56 140 56 140 58.33203125 141.67578125 C60.76294045 143.25145662 62.0870841 143.87393872 65 144 C70.75320651 142.02328854 75.82068495 139.1584353 81 136 C82.10472656 135.33613281 83.20945312 134.67226562 84.34765625 133.98828125 C101.0665795 123.35288879 113.18126068 109.60889359 118.35995483 90.23565674 C119.53293117 84.30584275 119.36474032 78.38632823 119.29296875 72.36328125 C119.28735827 70.98895231 119.28309506 69.61461729 119.28010559 68.24028015 C119.26877077 64.66129345 119.23940512 61.08268479 119.20599365 57.50384521 C119.17504428 53.83659984 119.1615477 50.16929207 119.14648438 46.50195312 C119.11452148 39.33446497 119.06346721 32.16728589 119 25 C112.57608677 22.29595777 106.15938036 19.61611432 99.6171875 17.2109375 C98.99200226 16.98097076 98.36681702 16.75100403 97.72268677 16.5140686 C96.42448869 16.03737366 95.12581471 15.56197266 93.82666016 15.08789062 C91.86856353 14.37264892 89.91274311 13.65142086 87.95703125 12.9296875 C73.11525914 6.55069296 73.11525914 6.55069296 57.62792969 7.31347656 Z " fill="#0F1924" transform="translate(0,0)"/>
<path d="M0 0 C0.83184814 0.29922363 1.66369629 0.59844727 2.52075195 0.90673828 C4.3796703 1.57559279 6.237438 2.24765112 8.09423828 2.92236328 C11.63906729 4.20306508 15.19190443 5.46043879 18.74609375 6.71484375 C20.67278233 7.39644163 22.59931157 8.07848746 24.52575684 8.76077271 C25.79987739 9.21179153 27.07421023 9.66221109 28.34875488 10.11203003 C30.14366907 10.74631619 31.93710353 11.38478498 33.73046875 12.0234375 C34.77098389 12.39259277 35.81149902 12.76174805 36.88354492 13.14208984 C39.25 14.0625 39.25 14.0625 40.25 15.0625 C40.3701594 16.91005507 40.42021646 18.76220565 40.44287109 20.61352539 C40.45893402 21.80309341 40.47499695 22.99266144 40.49154663 24.21827698 C40.53612405 29.72828018 40.57760151 35.23814956 40.60009766 40.74829102 C40.61330611 43.63957291 40.64089818 46.53012684 40.68212891 49.42114258 C41.02629144 74.09825278 39.31796267 93.61205228 21.296875 112.17578125 C12.85949046 120.44125272 1.74035898 126.70817969 -8.75 132.0625 C-9.6884375 132.55492187 -10.626875 133.04734375 -11.59375 133.5546875 C-16.49634487 134.34347133 -19.61537701 132.14247355 -23.8125 129.75 C-24.65014893 129.28867676 -25.48779785 128.82735352 -26.35083008 128.35205078 C-44.93825367 117.94594358 -60.1690172 105.27110111 -67.09375 84.46484375 C-68.35989941 79.8298325 -68.87332941 75.61724116 -68.86352539 70.8034668 C-68.86344986 69.56255783 -68.86337433 68.32164886 -68.86329651 67.0431366 C-68.85819072 65.69933023 -68.85297474 64.35552429 -68.84765625 63.01171875 C-68.84578965 61.62881013 -68.84436689 60.24590085 -68.84336853 58.86299133 C-68.83956237 55.23475294 -68.82974843 51.606555 -68.81866455 47.97833252 C-68.80840945 44.27136787 -68.80386215 40.56439664 -68.79882812 36.85742188 C-68.78812435 29.59242954 -68.7710709 22.32747045 -68.75 15.0625 C-63.40230436 12.62424743 -58.05895805 10.3624438 -52.51171875 8.40625 C-51.54139458 8.06273499 -51.54139458 8.06273499 -50.5514679 7.71228027 C-49.1967735 7.23341706 -47.84147718 6.75625337 -46.4855957 6.28076172 C-44.45068029 5.56712229 -42.4175793 4.84850805 -40.38476562 4.12890625 C-37.74992773 3.19710216 -35.11160925 2.27632099 -32.47021484 1.36328125 C-30.09642656 0.53328099 -27.73093058 -0.32110801 -25.37744141 -1.20703125 C-15.68634961 -4.75154998 -9.50746803 -3.50332207 0 0 Z M-21.14135742 5.42358398 C-21.97539597 5.72066757 -22.80943451 6.01775116 -23.66874695 6.32383728 C-24.55536514 6.64880692 -25.44198334 6.97377655 -26.35546875 7.30859375 C-27.73609245 7.80444725 -27.73609245 7.80444725 -29.14460754 8.31031799 C-32.07830061 9.36615123 -35.00782711 10.43306933 -37.9375 11.5 C-39.9209722 12.21489161 -41.90469356 12.92909232 -43.88867188 13.64257812 C-47.50952693 14.94835911 -51.13000199 16.25511203 -54.74682617 17.57202148 C-55.47342941 17.83627426 -56.20003265 18.10052704 -56.94865417 18.37278748 C-58.81049911 19.05198984 -58.81049911 19.05198984 -60.75 20.0625 C-60.84342513 27.2697402 -60.91412708 34.47684602 -60.95724869 41.68457317 C-60.97796447 45.03293768 -61.00820278 48.38056905 -61.05175781 51.72875977 C-61.10074902 55.59402161 -61.12307739 59.45870105 -61.140625 63.32421875 C-61.16127014 64.50392746 -61.18191528 65.68363617 -61.20318604 66.89909363 C-61.20720528 82.06753235 -56.0620849 94.53611021 -45.75 105.625 C-37.86255751 113.13492388 -26.26809301 121.9070721 -15.75 125.0625 C-10.98291765 124.78638279 -7.12089273 122.3209308 -3.0625 120 C-2.35279053 119.59515381 -1.64308105 119.19030762 -0.91186523 118.77319336 C14.05636393 110.05719232 25.99205061 98.54192885 31.31225586 81.69970703 C32.7453309 75.80046866 32.49698932 69.84754539 32.4453125 63.8125 C32.44106766 61.93171753 32.44106766 61.93171753 32.43673706 60.01293945 C32.42748144 56.7052535 32.40956217 53.39776818 32.3873291 50.09014893 C32.36674364 46.70465531 32.35770839 43.31913213 32.34765625 39.93359375 C32.32566874 33.30981832 32.29224576 26.68617555 32.25 20.0625 C28.23418244 18.58667737 24.21805237 17.11170895 20.20166016 15.63745117 C18.84220396 15.1383233 17.48282589 14.6389826 16.12353516 14.1394043 C12.8166468 12.92410447 9.5086622 11.71199696 6.19824219 10.50634766 C3.56314675 9.54631891 0.93471014 8.5704 -1.69042969 7.58349609 C-2.92438477 7.12668457 -4.15833984 6.66987305 -5.4296875 6.19921875 C-6.52780762 5.78760498 -7.62592773 5.37599121 -8.75732422 4.9519043 C-13.28418771 3.60654913 -16.72768925 3.82848315 -21.14135742 5.42358398 Z " fill="#D9B361" transform="translate(78.75,9.9375)"/>
<path d="M0 0 C1.00489471 -0.00503792 1.00489471 -0.00503792 2.03009033 -0.01017761 C4.25518626 -0.01971353 6.48020715 -0.02163204 8.70532227 -0.02270508 C10.24609916 -0.02591586 11.78687574 -0.02927979 13.32765198 -0.03279114 C16.56170356 -0.03878904 19.7957284 -0.04063037 23.02978516 -0.04003906 C27.18070372 -0.03993741 31.33145134 -0.05358986 35.48232937 -0.07081127 C38.66584567 -0.08191173 41.8493204 -0.08395887 45.03285408 -0.08342934 C46.56351371 -0.0846124 48.09417431 -0.08905236 49.62481499 -0.0967617 C51.7630204 -0.10652232 53.90085149 -0.10369938 56.0390625 -0.09765625 C57.25738266 -0.09908127 58.47570282 -0.10050629 59.73094177 -0.10197449 C62.58422852 0.14526367 62.58422852 0.14526367 64.58422852 2.14526367 C64.02867296 6.70081923 64.02867296 6.70081923 62.58422852 8.14526367 C60.93422852 8.14526367 59.28422852 8.14526367 57.58422852 8.14526367 C57.58422852 24.31526367 57.58422852 40.48526367 57.58422852 57.14526367 C54.94422852 57.14526367 52.30422852 57.14526367 49.58422852 57.14526367 C49.58422852 49.55526367 49.58422852 41.96526367 49.58422852 34.14526367 C35.39422852 34.14526367 21.20422852 34.14526367 6.58422852 34.14526367 C6.58422852 41.73526367 6.58422852 49.32526367 6.58422852 57.14526367 C3.94422852 57.14526367 1.30422852 57.14526367 -1.41577148 57.14526367 C-1.41577148 40.97526367 -1.41577148 24.80526367 -1.41577148 8.14526367 C-3.06577148 8.14526367 -4.71577148 8.14526367 -6.41577148 8.14526367 C-7.07577148 7.48526367 -7.73577148 6.82526367 -8.41577148 6.14526367 C-7.63056923 -0.29339479 -6.20852991 0.01943752 0 0 Z " fill="#C5A45A" transform="translate(36.415771484375,46.854736328125)"/>
<path d="M0 0 C5 2 5 2 7 3 C7 18.51 7 34.02 7 50 C4.36 50 1.72 50 -1 50 C-1 42.41 -1 34.82 -1 27 C-15.52 27 -30.04 27 -45 27 C-45 29.31 -45 31.62 -45 34 C-45.99 34 -46.98 34 -48 34 C-48.33 34.66 -48.66 35.32 -49 36 C-49.66 36 -50.32 36 -51 36 C-51 27.09 -51 18.18 -51 9 C-48.03 9.495 -48.03 9.495 -45 10 C-44.67 12.97 -44.34 15.94 -44 19 C-43.24380371 19.02505615 -42.48760742 19.0501123 -41.70849609 19.07592773 C-38.26384541 19.19236886 -34.81943592 19.31487662 -31.375 19.4375 C-30.18519531 19.47681641 -28.99539062 19.51613281 -27.76953125 19.55664062 C-26.61582031 19.59853516 -25.46210937 19.64042969 -24.2734375 19.68359375 C-23.21560059 19.72025146 -22.15776367 19.75690918 -21.06787109 19.79467773 C-17.99081427 20.00061477 -15.03867429 20.48862366 -12 21 C-9.87151489 20.91972866 -7.74442743 20.77444274 -5.625 20.5625 C-3.76875 20.376875 -1.9125 20.19125 0 20 C0 13.4 0 6.8 0 0 Z " fill="#DCB762" transform="translate(87,54)"/>
<path d="M0 0 C14.19 0 28.38 0 43 0 C43 5.94 43 11.88 43 18 C28.81 18 14.62 18 0 18 C0 12.06 0 6.12 0 0 Z " fill="#0F1924" transform="translate(43,55)"/>
<path d="M0 0 C8.96192395 -0.0462815 17.92380695 -0.0818478 26.8858242 -0.10362434 C31.04697253 -0.11407446 35.20803926 -0.12825592 39.36914062 -0.15087891 C43.38266429 -0.17256371 47.39610933 -0.18455937 51.40968704 -0.18975449 C52.94314436 -0.19345811 54.47659724 -0.20069011 56.01002121 -0.21146011 C58.15309801 -0.22591729 60.29584736 -0.2279804 62.43896484 -0.22705078 C64.27096939 -0.23371262 64.27096939 -0.23371262 66.13998413 -0.24050903 C69 0 69 0 71 2 C70.44444444 6.55555556 70.44444444 6.55555556 69 8 C67.33382885 8.04063832 65.66611905 8.042721 64 8 C63.34 9.32 62.68 10.64 62 12 C59.525 9.525 59.525 9.525 57 7 C57.05329468 7.90093384 57.05329468 7.90093384 57.10766602 8.82006836 C57.26468681 11.52559686 57.41369797 14.23150757 57.5625 16.9375 C57.64661133 18.35579102 57.64661133 18.35579102 57.73242188 19.80273438 C57.78076172 20.70185547 57.82910156 21.60097656 57.87890625 22.52734375 C57.9260376 23.35999756 57.97316895 24.19265137 58.02172852 25.05053711 C58 27 58 27 57 28 C54.73493088 28.26372085 52.46196727 28.46103223 50.1875 28.625 C48.32158203 28.76808594 48.32158203 28.76808594 46.41796875 28.9140625 C43 29 43 29 41.16625977 28.52514648 C38.39881479 27.85426018 35.76747291 27.78123682 32.921875 27.68359375 C31.76171875 27.64169922 30.6015625 27.59980469 29.40625 27.55664062 C28.1996875 27.51732422 26.993125 27.47800781 25.75 27.4375 C23.91695312 27.37272461 23.91695312 27.37272461 22.046875 27.30664062 C19.0313608 27.20062645 16.01576552 27.09856064 13 27 C13 26.67 13 26.34 13 26 C27.19 26 41.38 26 56 26 C56 19.73 56 13.46 56 7 C50.72 7 45.44 7 40 7 C39.505 5.515 39.505 5.515 39 4 C38.34 4 37.68 4 37 4 C37 3.34 37 2.68 37 2 C18.685 1.505 18.685 1.505 0 1 C0 0.67 0 0.34 0 0 Z " fill="#BD9F58" transform="translate(30,47)"/>
<path d="M0 0 C9.24 0 18.48 0 28 0 C28.33 0.66 28.66 1.32 29 2 C26.525 1.505 26.525 1.505 24 1 C24 1.66 24 2.32 24 3 C24.66 3 25.32 3 26 3 C26.33 3.99 26.66 4.98 27 6 C18.09 6 9.18 6 0 6 C0 4.02 0 2.04 0 0 Z " fill="#DDB863" transform="translate(43,48)"/>
<path d="M0 0 C0.33 0 0.66 0 1 0 C1.33 2.97 1.66 5.94 2 9 C2.66 8.67 3.32 8.34 4 8 C4 8.99 4 9.98 4 11 C4.99 10.67 5.98 10.34 7 10 C7 13.96 7 17.92 7 22 C4.69 22.33 2.38 22.66 0 23 C0 15.41 0 7.82 0 0 Z " fill="#D0AA5D" transform="translate(86,81)"/>
<path d="M0 0 C0 0.99 0 1.98 0 3 C-3 5.1875 -3 5.1875 -6 7 C-5.67 8.98 -5.34 10.96 -5 13 C-8.3 14.32 -11.6 15.64 -15 17 C-15.66 16.34 -16.32 15.68 -17 15 C-16.34 14.566875 -15.68 14.13375 -15 13.6875 C-14.01 12.8521875 -14.01 12.8521875 -13 12 C-13 11.01 -13 10.02 -13 9 C-13 8.34 -13 7.68 -13 7 C-8.71 4.69 -4.42 2.38 0 0 Z " fill="#D0AC5E" transform="translate(79,127)"/>
<path d="M0 0 C2.31 0.33 4.62 0.66 7 1 C6.84152588 1.62543701 6.68305176 2.25087402 6.51977539 2.89526367 C5.80642945 7.15624079 5.764336 11.36199448 5.68359375 15.67578125 C5.66281265 16.6009404 5.64203156 17.52609955 5.62062073 18.47929382 C5.5554344 21.42362307 5.49638442 24.36803865 5.4375 27.3125 C5.39428536 29.31315983 5.35067014 31.31381106 5.30664062 33.31445312 C5.1997848 38.20954779 5.09843081 43.10472897 5 48 C4.67 48 4.34 48 4 48 C3.67 33.81 3.34 19.62 3 5 C1.68 4.34 0.36 3.68 -1 3 C-0.67 2.01 -0.34 1.02 0 0 Z " fill="#E4BF67" transform="translate(13,24)"/>
<path d="M0 0 C0.99 0.33 1.98 0.66 3 1 C3 4.63 3 8.26 3 12 C1.02 12 -0.96 12 -3 12 C-3.08131463 10.56344146 -3.13933559 9.1255517 -3.1875 7.6875 C-3.22230469 6.88699219 -3.25710937 6.08648437 -3.29296875 5.26171875 C-2.93801608 2.52148416 -2.10633718 1.70828921 0 0 Z " fill="#DDB762" transform="translate(39,92)"/>
<path d="M0 0 C1.65322266 0.01740234 1.65322266 0.01740234 3.33984375 0.03515625 C4.99693359 0.04869141 4.99693359 0.04869141 6.6875 0.0625 C7.54214844 0.07410156 8.39679687 0.08570313 9.27734375 0.09765625 C7.49609375 3.94140625 7.49609375 3.94140625 5.52734375 5.34765625 C2.69980737 6.29016838 0.23741071 6.23220475 -2.72265625 6.09765625 C-3.10484392 4.44150968 -3.43660727 2.77308601 -3.72265625 1.09765625 C-2.72265625 0.09765625 -2.72265625 0.09765625 0 0 Z " fill="#DDB762" transform="translate(31.72265625,47.90234375)"/>
<path d="M0 0 C0.33 0 0.66 0 1 0 C1 7.59 1 15.18 1 23 C0.67 23 0.34 23 0 23 C-0.04898438 22.21753906 -0.09796875 21.43507813 -0.1484375 20.62890625 C-0.22320312 19.61699219 -0.29796875 18.60507813 -0.375 17.5625 C-0.47941406 16.04849609 -0.47941406 16.04849609 -0.5859375 14.50390625 C-0.72257812 13.67761719 -0.85921875 12.85132812 -1 12 C-1.66 11.67 -2.32 11.34 -3 11 C-3.33 11.99 -3.66 12.98 -4 14 C-4.66 14 -5.32 14 -6 14 C-6.1875 11.625 -6.1875 11.625 -6 9 C-3 7 -3 7 0 7 C0 4.69 0 2.38 0 0 Z " fill="#CEAB5D" transform="translate(42,81)"/>
<path d="M0 0 C-0.7115625 0.6496875 -0.7115625 0.6496875 -1.4375 1.3125 C-3.23686957 3.02309613 -3.23686957 3.02309613 -4 6 C-3.34 6.33 -2.68 6.66 -2 7 C-4.95664519 8.4783226 -7.74229737 8.06032783 -11 8 C-11.33 7.34 -11.66 6.68 -12 6 C-11.38125 5.7525 -10.7625 5.505 -10.125 5.25 C-7.62181694 3.77753937 -7.16954719 2.58971163 -6 0 C-3.50907189 -1.24546405 -2.58919267 -0.7767578 0 0 Z " fill="#DDB762" transform="translate(66,7)"/>
<path d="M0 0 C1.98 0 3.96 0 6 0 C5.125 4.875 5.125 4.875 4 6 C2.33382885 6.04063832 0.66611905 6.042721 -1 6 C-0.67 4.02 -0.34 2.04 0 0 Z " fill="#CCAB5E" transform="translate(95,49)"/>
<path d="M0 0 C0.66 0.33 1.32 0.66 2 1 C0.4375 3.0625 0.4375 3.0625 -2 5 C-5.75 4.75 -5.75 4.75 -9 4 C-6.06195683 2.47657021 -3.13439441 1.07229283 0 0 Z " fill="#CCAA5C" transform="translate(22,20)"/>
</svg>
