<?xml version="1.0" encoding="UTF-8"?>
<svg version="1.1" xmlns="http://www.w3.org/2000/svg" width="600" height="600">
<path d="M0 0 C198 0 396 0 600 0 C600 198 600 396 600 600 C402 600 204 600 0 600 C0 402 0 204 0 0 Z " fill="#FEFEFE" transform="translate(0,0)"/>
<path d="M0 0 C0.66 0 1.32 0 2 0 C2.33 10.89 2.66 21.78 3 33 C3.66 33 4.32 33 5 33 C5 38.28 5 43.56 5 49 C5.66 49 6.32 49 7 49 C7 54.28 7 59.56 7 65 C7.99 65 8.98 65 10 65 C10 72.92 10 80.84 10 89 C10.99 89 11.98 89 13 89 C13 98.24 13 107.48 13 117 C14.98 117 16.96 117 19 117 C19 141.09 19 165.18 19 190 C22.3 190 25.6 190 29 190 C30.6461354 216.93357708 31.27562689 244.01918988 31 271 C33.64 271 36.28 271 39 271 C43.31390522 334.59662161 43.31390522 334.59662161 43 358 C45.97 358 48.94 358 52 358 C53.56219253 376.90597328 55.0672567 395.8119978 56.1875 414.75 C56.25127838 415.80474518 56.25127838 415.80474518 56.31634521 416.88079834 C56.77958752 424.5997633 57.09703645 432.266941 57 440 C60.96 440 64.92 440 69 440 C69.33 443.3 69.66 446.6 70 450 C73.96 450 77.92 450 82 450 C82 453.63 82 457.26 82 461 C90.25 461 98.5 461 107 461 C107.67297033 465.35327681 108.33858885 469.70746509 109 474.0625 C109.19078125 475.29162109 109.3815625 476.52074219 109.578125 477.78710938 C109.75859375 478.98271484 109.9390625 480.17832031 110.125 481.41015625 C110.29257812 482.50465088 110.46015625 483.59914551 110.6328125 484.72680664 C111 488 111 488 111 495 C120.9 495 130.8 495 141 495 C141 497.64 141 500.28 141 503 C48.6 503 -43.8 503 -139 503 C-139 500.36 -139 497.72 -139 495 C-129.43 495 -119.86 495 -110 495 C-110 485.43 -110 475.86 -110 466 C-101.09 466 -92.18 466 -83 466 C-83 462.37 -83 458.74 -83 455 C-79.37 455 -75.74 455 -72 455 C-72 452.03 -72 449.06 -72 446 C-67.05 446 -62.1 446 -57 446 C-57.02247803 444.93547607 -57.04495605 443.87095215 -57.06811523 442.77416992 C-57.28718141 426.96979976 -56.23116802 411.24916323 -55.20404053 395.48883057 C-54.78539131 389.05167008 -54.37772599 382.6138086 -53.97265625 376.17578125 C-53.90725584 375.1418392 -53.90725584 375.1418392 -53.84053421 374.08700943 C-53.02055101 361.06549202 -52.44371902 348.03970941 -52 335 C-48.04 334.34 -44.08 333.68 -40 333 C-40.01281006 331.49840332 -40.02562012 329.99680664 -40.03881836 328.44970703 C-40.03701793 321.22510505 -39.71146854 314.02022418 -39.37890625 306.8046875 C-39.31390981 305.36223939 -39.24904731 303.91978524 -39.18431091 302.47732544 C-39.04891606 299.47357577 -38.91170004 296.46991632 -38.77319336 293.46630859 C-38.59690145 289.63944951 -38.42554086 285.81238794 -38.25558567 281.98524284 C-38.1229972 279.01325812 -37.98761052 276.04140569 -37.85142326 273.06958389 C-37.7871504 271.65919136 -37.72376087 270.24875826 -37.66131783 268.83828354 C-37.3358671 261.51928964 -36.922995 254.26951854 -36 247 C-33.36 247 -30.72 247 -28 247 C-28 220.6 -28 194.2 -28 167 C-24.37 167 -20.74 167 -17 167 C-17 142.91 -17 118.82 -17 94 C-13.7 94 -10.4 94 -7 94 C-7 82.78 -7 71.56 -7 60 C-5.68 60 -4.36 60 -3 60 C-3.03480469 58.68515625 -3.06960938 57.3703125 -3.10546875 56.015625 C-3.42875269 37.2247458 -1.76022828 18.68838107 0 0 Z " fill="#020202" transform="translate(299,54)"/>
</svg>
